<svg width="140" height="21" viewBox="0 0 140 21" fill="none" xmlns="http://www.w3.org/2000/svg">
<path d="M140 7.4197C139.977 9.05303 138.647 10.3364 137.037 10.3364C135.403 10.313 134.12 8.98303 134.12 7.37303C134.143 5.76303 135.45 4.45637 137.06 4.45637C138.67 4.43303 139.977 5.71637 140 7.30303C140 7.32637 140 7.37303 140 7.4197ZM134.587 7.4197C134.587 8.79636 135.707 9.89302 137.06 9.89302C138.413 9.89302 139.533 8.77303 139.533 7.4197C139.533 6.06637 138.413 4.94637 137.06 4.94637C135.707 4.94637 134.587 6.04303 134.587 7.4197ZM136.407 9.09969H135.987V5.71636H137.293C138.063 5.71636 138.39 6.04303 138.39 6.6497C138.437 7.1397 138.063 7.55969 137.597 7.58303C137.573 7.58303 137.55 7.58303 137.527 7.58303L138.53 9.07636H138.04L137.083 7.58303H136.383L136.407 9.09969ZM136.967 7.25636C137.48 7.25636 137.993 7.25636 137.993 6.67303C137.993 6.0897 137.597 6.0897 137.2 6.0897H136.43V7.2797H136.967V7.25636Z" fill="#0D678F"/>
<path d="M24.6635 9.68327C24.4068 8.81993 23.9868 8.00327 23.4501 7.27994C22.9135 6.60327 22.2368 6.04327 21.4668 5.66994C20.6268 5.24994 19.6935 5.03994 18.7368 5.06328C17.8035 5.03994 16.8701 5.24994 16.0068 5.66994C15.2368 6.06661 14.5368 6.62661 14.0002 7.30327C13.4635 8.02661 13.0435 8.81993 12.7868 9.68327C12.5068 10.6399 12.3668 11.6199 12.3668 12.6233C12.3668 12.7166 12.3668 12.7866 12.3668 12.8799C12.5768 13.9533 12.7868 15.0499 12.9968 16.1466C13.2302 16.7999 13.5568 17.4066 13.9768 17.9666C14.5135 18.6432 15.1902 19.2032 15.9601 19.5999C16.8001 20.0199 17.7335 20.2066 18.6901 20.1832C19.6235 20.2066 20.5568 19.9966 21.4201 19.5999C22.1901 19.2032 22.8668 18.6666 23.4035 17.9666C23.9635 17.2433 24.3835 16.4266 24.6168 15.5633C25.1768 13.6499 25.1768 11.6199 24.6168 9.7066L24.6635 9.68327ZM23.1468 14.8633C22.9601 15.5633 22.6801 16.2166 22.2835 16.8233C21.9101 17.3833 21.3968 17.8733 20.8135 18.2233C19.5301 18.9233 17.9901 18.9233 16.7068 18.2233C16.1235 17.8733 15.6101 17.4066 15.2368 16.8233C14.8402 16.2166 14.5368 15.5633 14.3735 14.8633C13.9768 13.3933 13.9768 11.8533 14.3735 10.3833C14.5602 9.68327 14.8402 9.02993 15.2368 8.42327C15.6101 7.86327 16.1235 7.39661 16.7068 7.06994C17.9901 6.36994 19.5301 6.36994 20.8135 7.06994C21.3968 7.41994 21.9101 7.88661 22.2835 8.46994C22.6801 9.0766 22.9835 9.72993 23.1468 10.4299C23.5435 11.8999 23.5435 13.4399 23.1468 14.9099V14.8633Z" fill="#0D678F"/>
<path d="M37.7301 19.7633V17.0333H37.6834C37.4967 17.5 37.2401 17.9433 36.9134 18.3166C36.5867 18.7133 36.1901 19.04 35.7701 19.32C35.3267 19.5766 34.8601 19.7866 34.3701 19.95C33.9034 20.09 33.3901 20.16 32.9001 20.16C31.9901 20.1833 31.0801 19.9733 30.2867 19.5766C29.5401 19.18 28.8867 18.62 28.3967 17.9433C27.8834 17.22 27.4867 16.4033 27.2767 15.54C26.7867 13.6266 26.7867 11.6433 27.2767 9.72999C27.4867 8.86665 27.8834 8.04998 28.3967 7.32665C29.7967 5.48332 32.1767 4.66666 34.4167 5.27333C35.3734 5.52999 36.2367 6.08999 36.8667 6.85999C37.1934 7.25665 37.4501 7.72332 37.6134 8.21332H37.6601V0H39.2934V19.81H37.7301V19.7633ZM28.7234 14.8166C28.8634 15.5166 29.1434 16.17 29.4934 16.7766C29.8434 17.3366 30.3101 17.8266 30.8467 18.1766C31.4534 18.55 32.1534 18.7366 32.8534 18.7133C33.6234 18.7366 34.3701 18.55 35.0467 18.1766C35.6301 17.8266 36.1434 17.36 36.5167 16.7766C36.8901 16.17 37.1701 15.5166 37.3101 14.8166C37.6367 13.37 37.6367 11.8766 37.3101 10.4533C37.1701 9.75332 36.8901 9.09998 36.5167 8.49332C36.1434 7.90998 35.6534 7.44332 35.0701 7.09332C34.3934 6.71999 33.6467 6.53332 32.8767 6.55666C32.1767 6.53332 31.4767 6.71999 30.8701 7.09332C30.3101 7.44332 29.8434 7.93332 29.5167 8.49332C29.1434 9.09998 28.8867 9.75332 28.7467 10.4533C28.4201 11.8766 28.4201 13.37 28.7234 14.8166Z" fill="#0D678F"/>
<path d="M47.5531 4.99316C44.1931 4.99316 41.9997 6.88316 41.8831 9.51982H43.3064C43.4697 7.4665 44.8697 6.22983 47.5997 6.22983C50.3297 6.22983 51.4031 7.18649 51.4031 9.54315C51.4031 10.8265 50.9831 11.0832 49.7931 11.3632C48.9531 11.5265 48.0897 11.6432 47.2264 11.7132H47.0631C45.8031 11.7598 44.5664 12.0165 43.3997 12.4831C41.9531 13.0665 41.0431 14.5131 41.1131 16.0531C41.1131 18.5965 42.9331 20.1831 45.8497 20.1831C47.9031 20.1831 49.8631 19.2965 51.1931 17.7331L51.4497 17.4765V18.0598C51.4497 19.1331 51.8231 20.0665 52.7797 20.2298V9.30982C52.7797 6.48649 51.0297 5.0165 47.5297 5.0165L47.5531 4.99316ZM51.4031 14.3031C51.4031 14.3731 51.4031 14.4198 51.4031 14.4898C51.3797 14.9798 51.2864 15.4698 51.1231 15.9598C50.4931 17.5931 48.9764 18.7365 47.2497 18.8998C46.8764 18.9465 46.5031 18.9698 46.1297 18.9698C44.0297 18.9698 42.6297 17.8265 42.6297 16.0531C42.6297 15.6098 42.7231 15.1665 42.9331 14.7698L42.9797 14.6765L43.0264 14.6065C43.1197 14.4431 43.2364 14.3031 43.3764 14.1631L43.4464 14.0931L43.5397 13.9998C43.7031 13.8598 43.8664 13.7198 44.0531 13.6032C45.1497 13.0432 46.3397 12.7398 47.5531 12.6698C48.7897 12.6465 50.0264 12.4365 51.1931 12.0632L51.3797 11.9931V13.4865V13.9065V14.2565" fill="#0D678F"/>
<path d="M71.5404 5.24987V0.956543H68.7637V16.5199C68.7871 17.0565 68.8337 17.5932 68.9271 18.1298C69.0671 18.9932 69.6971 19.7165 70.5604 19.9265C71.1904 20.1132 71.8204 20.1832 72.4737 20.1598C72.8237 20.1598 73.1504 20.1598 73.4771 20.1132L74.3404 20.0198V17.8265C74.1771 17.8498 74.0137 17.8732 73.8504 17.8965H73.1971C72.8937 17.9198 72.5904 17.8498 72.3337 17.7565C72.1237 17.6632 71.9371 17.4998 71.8204 17.3132C71.7037 17.1032 71.6337 16.8699 71.6104 16.6132C71.5871 16.3332 71.5871 16.0298 71.6104 15.7498V7.5832H74.4104V5.38987H71.5404V5.24987Z" fill="#0D678F"/>
<path d="M95.6663 7.63045C95.1063 6.83712 94.383 6.18378 93.543 5.71711C92.6563 5.22712 91.653 4.99379 90.6497 4.99379C89.693 4.97045 88.7597 5.20378 87.8963 5.62378C87.103 6.02045 86.3797 6.60378 85.8197 7.30378C85.2363 8.02712 84.7697 8.86711 84.4897 9.75378C84.1863 10.7104 84.023 11.7138 84.023 12.7171C84.023 13.7671 84.163 14.8404 84.4663 15.8438C84.723 16.7304 85.1663 17.5471 85.7497 18.2704C86.333 18.9471 87.033 19.4838 87.8497 19.8338C88.7597 20.2304 89.7163 20.4171 90.7197 20.3938C91.443 20.3938 92.1663 20.2771 92.843 20.0671C93.4963 19.8571 94.1263 19.5304 94.6863 19.1104C95.2463 18.6671 95.713 18.1538 96.0863 17.5471C96.4597 16.9638 96.7163 16.3104 96.8563 15.6338H94.243C94.0097 16.3571 93.5897 16.9871 92.983 17.4538C92.3063 17.9204 91.513 18.1538 90.7197 18.1071C90.113 18.1304 89.5063 17.9904 88.9697 17.7338C88.503 17.5004 88.083 17.1504 87.7563 16.7304C87.4297 16.2871 87.173 15.7971 87.033 15.2604C86.8697 14.7004 86.7997 14.0938 86.7997 13.5104V13.3471H97.1363C97.253 12.3204 97.183 11.2938 96.9263 10.2904C96.693 9.31044 96.273 8.37711 95.6897 7.56044L95.6663 7.63045ZM94.173 11.5271H86.7997V11.3638C86.823 10.8038 86.9163 10.2671 87.1263 9.75378C87.313 9.28711 87.5697 8.84378 87.9197 8.44711C88.2463 8.07378 88.6663 7.77044 89.1097 7.58378C89.5997 7.37378 90.113 7.25711 90.6497 7.25711C91.163 7.25711 91.6763 7.37378 92.143 7.60711C92.563 7.81711 92.9597 8.12045 93.263 8.47045C93.5897 8.86711 93.823 9.31044 93.9863 9.77711C94.173 10.2671 94.2663 10.8038 94.313 11.3171V11.4804L94.173 11.5271Z" fill="#0D678F"/>
<path d="M127.586 4.99306C126.723 4.96973 125.86 5.17973 125.113 5.62306C124.413 6.08973 123.83 6.67306 123.363 7.37306L123.2 7.62972L123.106 7.34972C122.85 6.57972 122.313 5.94972 121.613 5.55306C120.913 5.15639 120.12 4.96973 119.326 4.96973C118.836 4.96973 118.346 5.01639 117.88 5.15639C117.483 5.27306 117.11 5.43639 116.76 5.64639C116.433 5.85639 116.13 6.11306 115.896 6.39306C115.616 6.69639 115.383 7.02306 115.15 7.37306L115.103 7.44305H114.776V5.38973H112.163V20.0197H114.94V11.2697C114.94 10.6864 115.01 10.1264 115.196 9.56638C115.36 9.09972 115.593 8.67972 115.896 8.30639C116.176 7.97972 116.526 7.69972 116.923 7.51306C117.296 7.34972 117.716 7.25639 118.136 7.25639C118.93 7.16306 119.7 7.48972 120.19 8.14305C120.61 8.88972 120.796 9.70639 120.75 10.5464V19.9964H123.526V11.4097C123.48 10.3364 123.713 9.28638 124.25 8.37638C124.81 7.60639 125.72 7.18639 126.653 7.25639C127.166 7.23306 127.68 7.32639 128.146 7.55972C128.52 7.74639 128.823 8.04972 129.01 8.42305C129.196 8.84305 129.313 9.28639 129.336 9.75306C129.336 10.2431 129.383 10.8031 129.383 11.3864V19.9497H132.113V9.79972C132.113 8.04972 131.716 6.78972 130.923 6.04306C130.013 5.31972 128.823 4.92306 127.586 4.99306Z" fill="#0D678F"/>
<path d="M108.967 6.0436C107.683 5.25027 106.19 4.87694 104.697 4.99361C103.18 4.90028 101.663 5.34361 100.427 6.25361C99.4466 7.07027 98.8866 8.2836 98.9332 9.5436V9.6836H101.5C101.5 8.09694 102.597 7.2336 104.58 7.2336C106.563 7.2336 107.73 7.95693 107.73 9.42693C107.73 10.8969 106.96 10.9669 104.65 11.2703H104.347C102.76 11.3636 101.22 11.8069 99.8432 12.5769C98.7466 13.3703 98.1399 14.6536 98.2799 16.0069C98.2799 18.6203 99.9832 20.1602 102.83 20.1602C104.697 20.1836 106.447 19.2969 107.543 17.8269L107.823 17.4769V17.9203C107.823 19.3203 108.617 19.9503 110.343 19.9736V9.14694C110.413 7.95694 109.9 6.79027 108.967 6.0436ZM107.613 12.6003V14.4203C107.613 16.5203 105.863 18.0369 103.507 18.0369C101.897 18.0369 100.987 17.2203 100.987 15.7736C100.987 14.4903 101.71 13.7203 103.227 13.4403C103.623 13.3703 103.997 13.3003 104.393 13.2536C105.443 13.1603 106.447 12.9036 107.403 12.4603L107.637 12.3203V12.6003H107.613Z" fill="#0D678F"/>
<path d="M60.5965 10.8734C59.0099 10.5001 58.0299 10.0334 58.0299 8.84339C58.0299 7.79339 59.0099 7.1634 60.6432 7.1634C62.5565 7.1634 63.7232 8.02673 63.8865 9.47339H66.6165C66.6165 8.21339 66.0332 7.04673 65.0765 6.2534C63.8398 5.3434 62.2998 4.90006 60.7832 4.97006C57.3532 4.97006 55.2065 6.65006 55.2065 9.33339C55.2065 11.4567 56.4199 12.5534 59.6399 13.3467L61.8332 13.8834C63.1865 14.2334 64.2365 14.5834 64.2365 15.7967C64.2365 17.01 62.9998 17.9667 61.1332 17.9667C58.9165 17.9667 57.7265 17.1034 57.5399 15.3534H54.7865C54.7632 16.6834 55.3232 17.9667 56.3499 18.8534C57.6565 19.81 59.2665 20.2767 60.8765 20.1834C62.5098 20.2767 64.1198 19.81 65.4732 18.9C66.5232 18.06 67.1065 16.7534 67.0598 15.4C67.0598 12.7867 65.4498 11.9001 62.4865 11.1767L60.5965 10.8734Z" fill="#0D678F"/>
<path d="M79.0997 8.02635L79.053 8.16635V8.28301H78.7497V5.38969H76.1364V20.0197H78.913V13.0663C78.913 12.6697 78.9363 12.273 78.983 11.8763C78.983 11.713 78.983 11.5963 79.053 11.4563C79.3097 9.28635 81.083 7.58302 83.2763 7.48968C83.533 7.48968 83.7663 7.51301 84.023 7.55968V5.38969C83.6263 5.24969 83.2297 5.17969 82.8097 5.17969C81.1063 5.24969 79.613 6.39301 79.0997 8.02635Z" fill="#0D678F"/>
<path d="M6.67332 12.0397L5.90332 11.8531C3.31333 11.2464 1.75 10.8964 1.75 8.81972C1.75 7.23306 3.10333 6.20639 5.20333 6.20639C7.55999 6.20639 9.00665 7.39639 9.16998 9.44972H10.6633C10.43 6.64972 8.44665 4.96973 5.24999 4.96973C2.26333 4.96973 0.256668 6.60306 0.256668 9.05306C0.256668 11.5031 1.86666 12.2964 5.48332 13.183H5.55332C8.16665 13.7897 9.56665 14.163 9.56665 16.053C9.56665 17.943 7.95665 19.0164 5.48332 19.0164C3.45333 19.1564 1.68 17.663 1.47 15.633H0C0.0933332 18.4097 2.28666 20.253 5.55332 20.253C8.81999 20.253 11.06 18.5497 11.06 16.0997C11.06 13.9297 9.91665 12.833 6.67332 12.0397Z" fill="#0D678F"/>
</svg>
